<svg width="296.1422227674479" height="304.915625" viewBox="0 0 339.9621698706538 350.0337659850269" class="css-1j8o68f"><defs id="SvgjsDefs23242"><linearGradient id="SvgjsLinearGradient23251"><stop id="SvgjsStop23252" stop-color="#6d7cff" offset="0"></stop><stop id="SvgjsStop23253" stop-color="#ff51ff" offset="1"></stop></linearGradient><linearGradient id="SvgjsLinearGradient23254"><stop id="SvgjsStop23255" stop-color="#6d7cff" offset="0"></stop><stop id="SvgjsStop23256" stop-color="#ff51ff" offset="1"></stop></linearGradient><linearGradient id="SvgjsLinearGradient23257"><stop id="SvgjsStop23258" stop-color="#6d7cff" offset="0"></stop><stop id="SvgjsStop23259" stop-color="#ff51ff" offset="1"></stop></linearGradient><linearGradient id="SvgjsLinearGradient23260"><stop id="SvgjsStop23261" stop-color="#6d7cff" offset="0"></stop><stop id="SvgjsStop23262" stop-color="#ff51ff" offset="1"></stop></linearGradient></defs><g id="SvgjsG23243" featurekey="symbolFeature-0" transform="matrix(2.2242798571688676,0,0,2.2242798571688676,78.12733998132231,-11.18656161354626)" fill="url(#SvgjsLinearGradient23251)"><path xmlns="http://www.w3.org/2000/svg" d="M 70.001021,60.908126 C 68.622608,58.188108 67.145285,55.569902 65.575601,53.061639 58.094083,64.673965 45.56836,75.064135 29.698243,81.525375 l 5.309266,13.040633 C 51.421671,87.88435 63.626862,75.463114 70.001021,60.908126 Z" style="" stroke="none" fill="url(#SvgjsLinearGradient23251)" fill-opacity="1"></path><path xmlns="http://www.w3.org/2000/svg" d="m 37.525865,76.809637 c 2.171217,-1.206804 4.270728,-2.478348 6.294108,-3.809591 C 29.857827,66.307862 16.936783,52.331384 9.3857867,33.784604 L -3.6539196,39.093492 C 4.151638,58.27083 19.793082,71.718464 37.525865,76.809637 Z" style="" stroke="none" fill="url(#SvgjsLinearGradient23251)" fill-opacity="1"></path><path xmlns="http://www.w3.org/2000/svg" d="M 58.448894,18.069925 53.13963,5.029296 c -18.678298,7.604542 -31.913477,22.643386 -37.293764,39.803947 1.305283,2.150557 2.682822,4.213393 4.114126,6.201433 6.947823,-13.397889 20.595079,-25.679595 38.488902,-32.964751 z" style="" stroke="none" fill="url(#SvgjsLinearGradient23251)" fill-opacity="1"></path><path xmlns="http://www.w3.org/2000/svg" d="M 86.252811,60.179111 C 79.002346,42.370497 64.998815,29.506309 48.838299,23.681081 c -2.333081,1.368798 -4.578063,2.810777 -6.728291,4.32107 12.665286,7.216938 24.154499,20.421334 31.10217,37.486225 l 13.040633,-5.309265 z" style="" stroke="none" fill="url(#SvgjsLinearGradient23251)" fill-opacity="1"></path><circle xmlns="http://www.w3.org/2000/svg" style="" cx="43.209587" cy="51.021019" r="8.1112623" fill="url(#SvgjsLinearGradient23251)" fill-opacity="1" fill-rule="nonzero" stroke="none"></circle></g><g id="SvgjsG23244" featurekey="nameFeature-0" transform="matrix(3.1246524280714842,0,0,3.1246524280714842,3.7248759604352525e-7,204.548481030219)" fill="url(#SvgjsLinearGradient23254)"><path d="M0.6 4.880000000000001 l12.86 0 c0.32 0 0.6 0.28 0.6 0.6 c0 0.34 -0.28 0.62 -0.6 0.62 l-12.86 0 c-0.32 0 -0.6 -0.28 -0.6 -0.62 c0 -0.32 0.28 -0.6 0.6 -0.6 z M0.6 6.6 l4.4 0 c0.98 0 1.78 0.8 1.78 1.78 l0 11.02 c0 0.32 -0.28 0.6 -0.62 0.6 c-0.32 0 -0.6 -0.28 -0.6 -0.6 l0 -11.02 c0 -0.3 -0.26 -0.56 -0.56 -0.56 l-4.4 0 c-0.32 0 -0.6 -0.26 -0.6 -0.6 s0.28 -0.62 0.6 -0.62 z M9.06 6.6 l4.4 0 c0.32 0 0.6 0.28 0.6 0.62 s-0.28 0.6 -0.6 0.6 l-4.4 0 c-0.3 0 -0.56 0.26 -0.56 0.56 l0 11.02 c0 0.32 -0.26 0.6 -0.6 0.6 s-0.62 -0.28 -0.62 -0.6 l0 -11.02 c0 -0.98 0.8 -1.78 1.78 -1.78 z M23.38 6.380000000000001 c1.62 0 3.14 0.62 4.28 1.76 c1.14 1.16 1.76 2.68 1.76 4.3 c0 0.32 -0.26 0.6 -0.6 0.6 c-0.32 0 -0.6 -0.28 -0.6 -0.6 c0 -1.3 -0.5 -2.52 -1.42 -3.44 c-0.92 -0.9 -2.14 -1.42 -3.42 -1.42 c-1.3 0 -2.52 0.52 -3.44 1.42 c-0.92 0.92 -1.42 2.14 -1.42 3.44 c0 0.8 -0.66 1.48 -1.48 1.48 s-1.48 -0.68 -1.48 -1.48 c0 -2.1 0.82 -4.06 2.28 -5.52 c3.06 -3.06 8 -3.06 11.06 0 c1.48 1.46 2.28 3.42 2.28 5.52 c0 2.08 -0.8 4.04 -2.28 5.52 s-3.44 2.28 -5.52 2.28 c-0.34 0 -0.62 -0.26 -0.62 -0.6 s0.28 -0.6 0.62 -0.6 c1.76 0 3.42 -0.7 4.66 -1.94 s1.94 -2.9 1.94 -4.66 s-0.7 -3.42 -1.94 -4.68 c-2.58 -2.56 -6.76 -2.56 -9.34 0 c-1.24 1.26 -1.92 2.92 -1.92 4.68 c0 0.18 0.1 0.3 0.28 0.3 c0.16 0 0.26 -0.1 0.26 -0.3 c0 -1.62 0.62 -3.14 1.76 -4.3 c1.14 -1.14 2.68 -1.76 4.3 -1.76 z M33.22 5.300000000000001 c0.54 -0.56 1.52 -0.56 2.06 0 l4.24 4.24 c0.24 0.24 0.24 0.62 0 0.86 s-0.62 0.24 -0.86 0 l-4.2 -4.2 c-0.12 -0.12 -0.26 -0.16 -0.38 -0.04 c-0.1 0.1 -0.1 0.26 0 0.36 l5.06 5.06 l6.28 -6.28 c0.54 -0.56 1.52 -0.56 2.08 0 c0.6 0.6 0.5 1.56 0 2.08 l-6.04 6.02 l0 6 c0 0.32 -0.26 0.6 -0.6 0.6 s-0.62 -0.28 -0.62 -0.6 l0 -6.22 c0 -0.16 0.04 -0.32 0.2 -0.48 l6.18 -6.18 c0.1 -0.1 0.1 -0.26 0 -0.36 c-0.08 -0.1 -0.24 -0.1 -0.34 0 l-6.54 6.54 l0 6.7 c0 0.32 -0.28 0.6 -0.62 0.6 c-0.32 0 -0.6 -0.28 -0.6 -0.6 l0 -6.72 l-5.3 -5.3 c-0.62 -0.62 -0.52 -1.56 0 -2.08 z M51 4.880000000000001 c0.8 0 1.46 0.66 1.46 1.46 l0 10.16 c0 0.3 0.26 0.56 0.56 0.56 l6.02 0 c0.82 0 1.48 0.66 1.48 1.46 c0 0.82 -0.66 1.48 -1.48 1.48 l-6.02 0 c-0.34 0 -0.6 -0.28 -0.6 -0.62 c0 -0.32 0.26 -0.6 0.6 -0.6 l6.02 0 c0.14 0 0.26 -0.12 0.26 -0.26 s-0.12 -0.24 -0.26 -0.24 l-6.02 0 c-0.98 0 -1.78 -0.8 -1.78 -1.78 l0 -10.14 c0 -0.14 -0.1 -0.26 -0.24 -0.26 c-0.16 0 -0.26 0.12 -0.26 0.26 l0 6.06 c0 0.34 -0.28 0.62 -0.62 0.62 c-0.32 0 -0.6 -0.28 -0.6 -0.62 l0 -6.08 c0 -0.8 0.66 -1.46 1.48 -1.46 z M69.26 4.880000000000001 c1.46 0 2.76 0.9 3.28 2.26 l5.02 12.02 c0.14 0.32 -0.02 0.66 -0.32 0.8 c-0.32 0.12 -0.68 -0.02 -0.8 -0.34 l-5.06 -12.1 c-0.36 -0.86 -1.2 -1.42 -2.12 -1.42 c-0.94 0 -1.76 0.56 -2.12 1.42 l-4.56 10.9 c-0.06 0.14 -0.02 0.3 0.12 0.36 s0.28 0 0.34 -0.16 l4.56 -10.88 c0.28 -0.66 0.94 -1.08 1.66 -1.08 s1.38 0.42 1.66 1.1 l2.36 5.62 c0.22 0.52 -0.1 0.84 -0.58 0.84 l-4.8 0 c-0.34 0 -0.62 -0.28 -0.62 -0.62 s0.28 -0.6 0.62 -0.6 l3.9 0 l-2 -4.76 c-0.08 -0.22 -0.28 -0.38 -0.54 -0.38 s-0.46 0.16 -0.54 0.38 l-4.56 10.84 c-0.3 0.76 -1.16 1.12 -1.92 0.82 c-0.76 -0.32 -1.12 -1.18 -0.82 -1.92 l4.56 -10.84 c0.52 -1.36 1.82 -2.26 3.28 -2.26 z M80.96000000000001 5.359999999999999 c1.62 -0.94 3.72 -0.4 4.78 1.24 l7.18 11.18 c0.42 0.7 0.18 1.64 -0.52 2.04 c-0.62 0.34 -1.5 0.28 -2 -0.54 l-7.14 -11.08 c-0.14 -0.22 -0.48 -0.5 -0.82 -0.3 c-0.16 0.1 -0.28 0.28 -0.28 0.48 l0 11.02 c0 0.32 -0.28 0.6 -0.6 0.6 c-0.34 0 -0.62 -0.28 -0.62 -0.6 l0 -11.02 c0 -0.64 0.34 -1.22 0.9 -1.54 c0.94 -0.54 1.96 -0.04 2.44 0.7 l7.14 11.08 c0.08 0.14 0.2 0.26 0.38 0.16 s0.14 -0.28 0.06 -0.38 l-7.14 -11.14 c-0.7 -1.1 -2.06 -1.48 -3.14 -0.86 c-0.7 0.42 -1.14 1.16 -1.14 1.96 l0 11.04 c0 0.32 -0.28 0.6 -0.62 0.6 c-0.32 0 -0.6 -0.28 -0.6 -0.6 l0 -10.96 c-0.02 -1.26 0.64 -2.46 1.74 -3.08 z M91.66000000000001 4.9 c0.82 0 1.48 0.66 1.48 1.46 l0 8.58 c0 0.34 -0.28 0.6 -0.6 0.6 c-0.34 0 -0.62 -0.26 -0.62 -0.6 l0 -8.58 c0 -0.14 -0.12 -0.26 -0.26 -0.26 s-0.24 0.12 -0.24 0.26 l0 5.74 c0 0.34 -0.28 0.62 -0.62 0.62 s-0.6 -0.28 -0.6 -0.62 l0 -5.74 c0 -0.8 0.66 -1.46 1.46 -1.46 z M101.24000000000001 4.9 c4.18 0 7.56 3.38 7.56 7.54 c0 4.18 -3.38 7.56 -7.56 7.56 l-4.36 0 c-1.18 0 -2.14 -0.96 -2.14 -2.14 l0 -10.68 c0 -0.32 0.28 -0.6 0.6 -0.6 c0.34 0 0.62 0.28 0.62 0.6 l0 10.68 c0 0.52 0.4 0.92 0.92 0.92 l4.36 0 c3.5 0 6.34 -2.84 6.34 -6.34 c0 -3.48 -2.84 -6.34 -6.34 -6.34 c-0.32 0 -0.6 -0.26 -0.6 -0.6 s0.28 -0.6 0.6 -0.6 z M97.04 6.58 l4.2 0 c3.24 0 5.88 2.64 5.88 5.86 c0 3.24 -2.64 5.88 -5.88 5.88 c-0.32 0 -0.6 -0.28 -0.6 -0.62 s0.28 -0.6 0.6 -0.6 c2.56 0 4.66 -2.1 4.66 -4.66 s-2.1 -4.64 -4.66 -4.64 l-3.58 0 l0 9.9 c0 0.34 -0.28 0.62 -0.62 0.62 s-0.6 -0.28 -0.6 -0.62 l0 -10.52 c0 -0.32 0.26 -0.6 0.6 -0.6 z"></path></g><g id="SvgjsG23245" featurekey="nameFeature-1" transform="matrix(2.6054731855155615,0,0,2.6054731855155615,3.1059660738892096e-7,265.2852980108299)" fill="url(#SvgjsLinearGradient23257)"><path d="M0.6 4.880000000000001 l12.86 0 c0.32 0 0.6 0.28 0.6 0.6 c0 0.34 -0.28 0.62 -0.6 0.62 l-12.86 0 c-0.32 0 -0.6 -0.28 -0.6 -0.62 c0 -0.32 0.28 -0.6 0.6 -0.6 z M0.6 6.6 l4.4 0 c0.98 0 1.78 0.8 1.78 1.78 l0 11.02 c0 0.32 -0.28 0.6 -0.62 0.6 c-0.32 0 -0.6 -0.28 -0.6 -0.6 l0 -11.02 c0 -0.3 -0.26 -0.56 -0.56 -0.56 l-4.4 0 c-0.32 0 -0.6 -0.26 -0.6 -0.6 s0.28 -0.62 0.6 -0.62 z M9.06 6.6 l4.4 0 c0.32 0 0.6 0.28 0.6 0.62 s-0.28 0.6 -0.6 0.6 l-4.4 0 c-0.3 0 -0.56 0.26 -0.56 0.56 l0 11.02 c0 0.32 -0.26 0.6 -0.6 0.6 s-0.62 -0.28 -0.62 -0.6 l0 -11.02 c0 -0.98 0.8 -1.78 1.78 -1.78 z M16.26 4.880000000000001 l7.28 0 c2.48 0.02 4.48 2.06 4.48 4.54 c0 2.32 -1.78 4.24 -4.04 4.48 l3.62 3.6 c0.54 0.54 0.54 1.54 0 2.08 s-1.48 0.58 -2.04 0.02 c-0.52 -0.54 -2.52 -2.52 -2.52 -2.52 c-0.24 -0.24 -0.24 -0.62 0 -0.86 s0.62 -0.24 0.86 0 l2.48 2.48 c0.1 0.1 0.26 0.12 0.36 0.02 s0.12 -0.24 0 -0.36 l-4.64 -4.62 c-0.12 -0.12 -0.18 -0.26 -0.18 -0.42 c0 -0.34 0.28 -0.62 0.62 -0.62 l0.96 0 c1.82 0 3.32 -1.48 3.32 -3.3 s-1.5 -3.3 -3.32 -3.3 l-6.62 0 l0 3.3 c0 0.34 -0.28 0.6 -0.62 0.6 s-0.6 -0.26 -0.6 -0.6 l0 -3.92 c0 -0.32 0.26 -0.6 0.6 -0.6 z M23.52 6.6 c1.54 0 2.8 1.26 2.8 2.8 s-1.26 2.78 -2.8 2.78 l-3.34 0 c-1.82 0 -3.3 1.48 -3.3 3.3 l0 3.92 c0 0.32 -0.28 0.6 -0.62 0.6 s-0.6 -0.28 -0.6 -0.6 l0 -3.92 c0 -2.5 2.02 -4.52 4.52 -4.52 l3.34 0 c0.88 0 1.58 -0.7 1.58 -1.56 c0 -0.88 -0.7 -1.58 -1.58 -1.58 c-0.34 0 -0.6 -0.26 -0.6 -0.6 s0.26 -0.62 0.6 -0.62 z M33.120000000000005 4.880000000000001 l7.42 0 c0.8 0 1.46 0.66 1.46 1.46 s-0.62 1.48 -1.42 1.48 l-7.46 0 c-0.3 0 -0.56 0.24 -0.56 0.56 c0 0.3 0.26 0.56 0.56 0.56 c0.34 0 0.62 0.26 0.62 0.6 s-0.28 0.62 -0.62 0.62 c-0.98 0 -1.76 -0.8 -1.76 -1.78 s0.78 -1.78 1.76 -1.78 l7.42 0 c0.14 0 0.24 -0.12 0.24 -0.26 s-0.1 -0.24 -0.24 -0.24 l-7.42 0 c-1.26 0 -2.28 1.02 -2.28 2.28 s1.02 2.28 2.28 2.28 l5.38 0 c0.98 0 1.78 0.8 1.78 1.8 c0 0.98 -0.8 1.76 -1.78 1.76 l-5.38 0 c-1.26 0 -2.28 1.02 -2.28 2.28 s1.02 2.28 2.28 2.28 l8.26 0 c0.34 0 0.62 0.28 0.62 0.62 s-0.28 0.6 -0.62 0.6 l-8.26 0 c-1.94 0 -3.5 -1.56 -3.5 -3.5 c0 -1.92 1.56 -3.5 3.5 -3.5 l5.38 0 c0.32 0 0.56 -0.24 0.56 -0.54 c0 -0.34 -0.24 -0.58 -0.56 -0.58 l-5.38 0 c-1.92 0 -3.5 -1.58 -3.5 -3.5 c0 -1.94 1.58 -3.5 3.5 -3.5 z M33.120000000000005 14.74 l5.38 0 c0.34 0 0.62 0.26 0.62 0.6 s-0.28 0.62 -0.62 0.62 l-5.38 0 c-0.3 0 -0.56 0.24 -0.56 0.54 c0 0.32 0.26 0.56 0.56 0.56 c0.34 0 0.6 0.28 0.6 0.62 c0 0.32 -0.26 0.6 -0.6 0.6 c-0.98 0 -1.78 -0.8 -1.78 -1.78 s0.8 -1.76 1.78 -1.76 z M51.54 4.880000000000001 c1.46 0 2.76 0.9 3.28 2.26 l5.02 12.02 c0.14 0.32 -0.02 0.66 -0.32 0.8 c-0.32 0.12 -0.68 -0.02 -0.8 -0.34 l-5.06 -12.1 c-0.36 -0.86 -1.2 -1.42 -2.12 -1.42 c-0.94 0 -1.76 0.56 -2.12 1.42 l-4.56 10.9 c-0.06 0.14 -0.02 0.3 0.12 0.36 s0.28 0 0.34 -0.16 l4.56 -10.88 c0.28 -0.66 0.94 -1.08 1.66 -1.08 s1.38 0.42 1.66 1.1 l2.36 5.62 c0.22 0.52 -0.1 0.84 -0.58 0.84 l-4.8 0 c-0.34 0 -0.62 -0.28 -0.62 -0.62 s0.28 -0.6 0.62 -0.6 l3.9 0 l-2 -4.76 c-0.08 -0.22 -0.28 -0.38 -0.54 -0.38 s-0.46 0.16 -0.54 0.38 l-4.56 10.84 c-0.3 0.76 -1.16 1.12 -1.92 0.82 c-0.76 -0.32 -1.12 -1.18 -0.82 -1.92 l4.56 -10.84 c0.52 -1.36 1.82 -2.26 3.28 -2.26 z M64.62 4.880000000000001 l5.8 0 c0.82 0 1.48 0.66 1.48 1.48 c0 0.8 -0.66 1.46 -1.48 1.46 l-5.82 0 c-0.86 0 -1.56 0.7 -1.56 1.58 c0 0.86 0.7 1.56 1.56 1.56 l4 0 c2.5 0 4.52 2.02 4.52 4.52 c0 0.34 -0.28 0.6 -0.6 0.6 c-0.34 0 -0.62 -0.26 -0.62 -0.6 c0 -1.82 -1.48 -3.3 -3.3 -3.3 l-4 0 c-1.54 0 -2.78 -1.24 -2.78 -2.78 s1.24 -2.8 2.78 -2.8 l5.82 0 c0.14 0 0.26 -0.1 0.26 -0.24 s-0.12 -0.26 -0.26 -0.26 l-5.8 0 c-1.82 0 -3.3 1.48 -3.3 3.3 c0 0.34 -0.28 0.6 -0.62 0.6 c-0.32 0 -0.6 -0.26 -0.6 -0.6 c0 -2.5 2.02 -4.52 4.52 -4.52 z M64.62 12.7 l4 0 c1.54 0 2.78 1.26 2.78 2.8 s-1.24 2.78 -2.78 2.78 l-6.4 0 c-0.14 0 -0.26 0.12 -0.26 0.26 s0.12 0.24 0.26 0.24 l6.38 0 c0.34 0 0.6 0.28 0.6 0.62 c0 0.32 -0.26 0.6 -0.6 0.6 l-6.38 0 c-0.82 0 -1.48 -0.66 -1.48 -1.46 s0.62 -1.48 1.42 -1.48 l6.46 0 c0.86 0 1.56 -0.7 1.56 -1.56 c0 -0.88 -0.7 -1.58 -1.56 -1.58 l-4 0 c-0.34 0 -0.6 -0.28 -0.6 -0.6 c0 -0.34 0.26 -0.62 0.6 -0.62 z M86.46 4.880000000000001 c0.8 0 1.44 0.64 1.46 1.44 l0 7.32 c0 1.76 -0.68 3.42 -1.94 4.68 c-1.28 1.28 -2.98 1.92 -4.66 1.92 c-1.7 0 -3.38 -0.64 -4.66 -1.92 c-1.26 -1.26 -1.94 -2.92 -1.94 -4.68 c0 -0.32 0.26 -0.6 0.6 -0.6 c0.32 0 0.6 0.28 0.6 0.6 c0 1.44 0.56 2.8 1.58 3.82 c2.1 2.12 5.54 2.12 7.64 0 c1.02 -1.02 1.58 -2.38 1.58 -3.82 l0 -7.3 c0 -0.14 -0.12 -0.26 -0.26 -0.26 c-0.16 0 -0.28 0.12 -0.28 0.26 l0 7.3 c0 1.3 -0.5 2.52 -1.42 3.44 s-2.14 1.42 -3.44 1.42 s-2.52 -0.5 -3.44 -1.42 s-1.42 -2.14 -1.42 -3.44 l0 -8.16 c0 -0.34 0.26 -0.6 0.58 -0.6 c0.34 0 0.6 0.26 0.6 0.6 l0 8.16 c0 0.98 0.38 1.9 1.08 2.6 s1.62 1.08 2.6 1.08 s1.9 -0.38 2.6 -1.08 c0.68 -0.7 1.08 -1.62 1.08 -2.6 l0 -7.32 c0 -0.8 0.66 -1.44 1.46 -1.44 z M90.11999999999999 4.880000000000001 l7.28 0 c2.48 0.02 4.48 2.06 4.48 4.54 c0 2.32 -1.78 4.24 -4.04 4.48 l3.62 3.6 c0.54 0.54 0.54 1.54 0 2.08 s-1.48 0.58 -2.04 0.02 c-0.52 -0.54 -2.52 -2.52 -2.52 -2.52 c-0.24 -0.24 -0.24 -0.62 0 -0.86 s0.62 -0.24 0.86 0 l2.48 2.48 c0.1 0.1 0.26 0.12 0.36 0.02 s0.12 -0.24 0 -0.36 l-4.64 -4.62 c-0.12 -0.12 -0.18 -0.26 -0.18 -0.42 c0 -0.34 0.28 -0.62 0.62 -0.62 l0.96 0 c1.82 0 3.32 -1.48 3.32 -3.3 s-1.5 -3.3 -3.32 -3.3 l-6.62 0 l0 3.3 c0 0.34 -0.28 0.6 -0.62 0.6 s-0.6 -0.26 -0.6 -0.6 l0 -3.92 c0 -0.32 0.26 -0.6 0.6 -0.6 z M97.38 6.6 c1.54 0 2.8 1.26 2.8 2.8 s-1.26 2.78 -2.8 2.78 l-3.34 0 c-1.82 0 -3.3 1.48 -3.3 3.3 l0 3.92 c0 0.32 -0.28 0.6 -0.62 0.6 s-0.6 -0.28 -0.6 -0.6 l0 -3.92 c0 -2.5 2.02 -4.52 4.52 -4.52 l3.34 0 c0.88 0 1.58 -0.7 1.58 -1.56 c0 -0.88 -0.7 -1.58 -1.58 -1.58 c-0.34 0 -0.6 -0.26 -0.6 -0.6 s0.26 -0.62 0.6 -0.62 z M106.97999999999999 4.880000000000001 l7.42 0 c0.8 0 1.46 0.66 1.46 1.46 s-0.62 1.48 -1.42 1.48 l-7.46 0 c-0.3 0 -0.56 0.24 -0.56 0.56 c0 0.3 0.26 0.56 0.56 0.56 c0.34 0 0.62 0.26 0.62 0.6 s-0.28 0.62 -0.62 0.62 c-0.98 0 -1.76 -0.8 -1.76 -1.78 s0.78 -1.78 1.76 -1.78 l7.42 0 c0.14 0 0.24 -0.12 0.24 -0.26 s-0.1 -0.24 -0.24 -0.24 l-7.42 0 c-1.26 0 -2.28 1.02 -2.28 2.28 s1.02 2.28 2.28 2.28 l5.38 0 c0.98 0 1.78 0.8 1.78 1.8 c0 0.98 -0.8 1.76 -1.78 1.76 l-5.38 0 c-1.26 0 -2.28 1.02 -2.28 2.28 s1.02 2.28 2.28 2.28 l8.26 0 c0.34 0 0.62 0.28 0.62 0.62 s-0.28 0.6 -0.62 0.6 l-8.26 0 c-1.94 0 -3.5 -1.56 -3.5 -3.5 c0 -1.92 1.56 -3.5 3.5 -3.5 l5.38 0 c0.32 0 0.56 -0.24 0.56 -0.54 c0 -0.34 -0.24 -0.58 -0.56 -0.58 l-5.38 0 c-1.92 0 -3.5 -1.58 -3.5 -3.5 c0 -1.94 1.58 -3.5 3.5 -3.5 z M106.97999999999999 14.74 l5.38 0 c0.34 0 0.62 0.26 0.62 0.6 s-0.28 0.62 -0.62 0.62 l-5.38 0 c-0.3 0 -0.56 0.24 -0.56 0.54 c0 0.32 0.26 0.56 0.56 0.56 c0.34 0 0.6 0.28 0.6 0.62 c0 0.32 -0.26 0.6 -0.6 0.6 c-0.98 0 -1.78 -0.8 -1.78 -1.78 s0.8 -1.76 1.78 -1.76 z M121.97999999999999 4.880000000000001 l5.8 0 c0.82 0 1.48 0.66 1.48 1.48 c0 0.8 -0.66 1.46 -1.48 1.46 l-5.82 0 c-0.86 0 -1.56 0.7 -1.56 1.58 c0 0.86 0.7 1.56 1.56 1.56 l4 0 c2.5 0 4.52 2.02 4.52 4.52 c0 0.34 -0.28 0.6 -0.6 0.6 c-0.34 0 -0.62 -0.26 -0.62 -0.6 c0 -1.82 -1.48 -3.3 -3.3 -3.3 l-4 0 c-1.54 0 -2.78 -1.24 -2.78 -2.78 s1.24 -2.8 2.78 -2.8 l5.82 0 c0.14 0 0.26 -0.1 0.26 -0.24 s-0.12 -0.26 -0.26 -0.26 l-5.8 0 c-1.82 0 -3.3 1.48 -3.3 3.3 c0 0.34 -0.28 0.6 -0.62 0.6 c-0.32 0 -0.6 -0.26 -0.6 -0.6 c0 -2.5 2.02 -4.52 4.52 -4.52 z M121.97999999999999 12.7 l4 0 c1.54 0 2.78 1.26 2.78 2.8 s-1.24 2.78 -2.78 2.78 l-6.4 0 c-0.14 0 -0.26 0.12 -0.26 0.26 s0.12 0.24 0.26 0.24 l6.38 0 c0.34 0 0.6 0.28 0.6 0.62 c0 0.32 -0.26 0.6 -0.6 0.6 l-6.38 0 c-0.82 0 -1.48 -0.66 -1.48 -1.46 s0.62 -1.48 1.42 -1.48 l6.46 0 c0.86 0 1.56 -0.7 1.56 -1.56 c0 -0.88 -0.7 -1.58 -1.56 -1.58 l-4 0 c-0.34 0 -0.6 -0.28 -0.6 -0.6 c0 -0.34 0.26 -0.62 0.6 -0.62 z"></path></g><g id="SvgjsG23246" featurekey="sloganFeature-0" transform="matrix(0.8287717359259821,0,0,0.8287717359259821,33.63534043816851,333.2428504254757)" fill="url(#SvgjsLinearGradient23260)"><path d="M1.5 13.16 l0 -4.62 c0 -0.56 -0.26 -1.06 -0.62 -1.48 l-0.44 -0.5 l0 -0.56 l4.22 0 l0 0.56 l-0.4 0.5 c-0.34 0.42 -0.6 0.92 -0.6 1.48 l0 4.42 c0 3.48 1.68 5.9 4.06 5.9 c2.98 0 4.38 -2.42 4.38 -5.9 l0 -4.74 c0 -0.6 -0.28 -1.22 -0.76 -1.62 l0 -0.6 l2.38 0 l0 0.6 c-0.46 0.4 -0.74 1.02 -0.74 1.62 l0 4.78 c0 3.9 -1.98 7.1 -5.36 7.1 c-3.34 0 -6.12 -2.14 -6.12 -6.94 z M17.769000000000002 20 l0 -0.54 l0.32 -0.34 c0.36 -0.38 0.56 -0.82 0.56 -1.36 l0 -9.32 c0 -0.48 -0.16 -0.96 -0.46 -1.28 l-0.56 -0.58 l0 -0.58 l3.18 0 l8.14 12.66 l0 -10.7 c0 -0.52 -0.2 -1 -0.62 -1.38 l0 -0.58 l2.4 0 l0 0.58 l-0.32 0.32 c-0.38 0.34 -0.6 0.84 -0.6 1.34 l0 11.76 l-2.16 0 l-7.9 -12.3 l-0.22 0 l0 10.36 c0 0.52 0.24 1.02 0.62 1.4 l0 0.54 l-2.38 0 z M39.937999999999995 17.46 l0 -0.56 c0.66 -0.7 1.04 -1.64 1.04 -2.6 l0 -5.12 c0 -1 -0.38 -1.92 -1.04 -2.62 l0 -0.56 l8.84 0 l0.1 2.52 l-0.96 0 c-1.34 -1.02 -2.96 -1.58 -4.66 -1.58 l-0.12 0 l0 4.44 l3 0 l0 1 l-3 0 l0 4.16 l0.04 0 c1.66 0 3.26 -0.52 4.6 -1.54 l0.14 -0.12 l0.96 0 l-0.1 2.56 l0 0.02 l-8.84 0 z M34.717999999999996 20 l0 -0.56 c0.68 -0.7 1.02 -1.64 1.02 -2.62 l0 -7.64 c0 -0.98 -0.34 -1.92 -1.02 -2.62 l0 -0.56 l4.24 0 l0 0.56 c-0.66 0.7 -1.02 1.64 -1.02 2.62 l0 9.9 l3.16 0 c1.06 0 2.06 -0.32 2.94 -0.94 l0.6 0 l0 1.86 l-9.92 0 z M52.306999999999995 20 l0 -0.54 l0.9 -0.96 c0.1 -0.12 0.16 -0.22 0.24 -0.4 l4.74 -12.1 l2.16 0 l4.76 12.06 c0.08 0.2 0.2 0.32 0.36 0.46 l1.1 0.94 l0 0.54 l-4.26 0 l0 -0.54 l0.1 -0.06 c0.5 -0.34 0.68 -0.92 0.46 -1.48 l-0.92 -2.34 l-6.58 0 l-1 2.52 c-0.18 0.48 -0.04 1.02 0.34 1.36 l0 0.54 l-2.4 0 z M55.687 14.780000000000001 l5.96 0 l-2.98 -7.6 z M69.916 18.76 l0 -1.84 l1.1 0 l0.94 1.06 c0.84 0.94 1.94 1.12 3.26 1.14 c1.58 0 3.06 -0.52 3.06 -1.84 c0 -1.62 -2.8 -3.2 -4.4 -4.1 c-1.38 -0.78 -3.7 -1.88 -3.7 -3.54 c0 -3.08 3.88 -3.64 4.96 -3.64 c1.34 0 2.7 0.3 4.14 0.9 l0.04 1.82 l-1.14 0 l-0.66 -0.8 c-0.64 -0.76 -1.62 -1.2 -2.58 -1.2 c-1.7 0 -2.64 1.2 -2.64 1.88 c0 1.42 2.88 2.44 5.68 4.28 c1.58 1.04 2.3 2.28 2.3 3.44 c0 1.96 -1.98 3.74 -5 3.74 c-3.66 0 -5.36 -1.3 -5.36 -1.3 z M84.20500000000001 20 l0 -0.54 c0.68 -0.74 1.04 -1.68 1.04 -2.6 l0 -7.68 c0 -0.96 -0.36 -1.92 -1.02 -2.62 l0 -0.56 l4.26 0 l0 0.56 c-0.68 0.7 -1.08 1.66 -1.08 2.62 l0 3.56 l6.16 0 l0 -3.56 c0 -0.96 -0.38 -1.92 -1.06 -2.62 l0 -0.56 l4.26 0 l0 0.56 c-0.66 0.7 -1.02 1.66 -1.02 2.62 l0 7.68 c0 0.92 0.36 1.86 1.02 2.6 l0 0.54 l-4.26 0 l0 -0.54 c0.68 -0.74 1.06 -1.68 1.06 -2.6 l0 -3.2 l-6.16 0 l0 3.2 c0 0.92 0.4 1.86 1.04 2.6 l0 0.54 l-4.24 0 z M113.383 20 l0 -0.54 c0.68 -0.7 1.08 -1.66 1.08 -2.64 l0 -3.32 l-3.68 -5.84 c-0.08 -0.14 -0.2 -0.28 -0.34 -0.36 l-1.12 -0.74 l0 -0.56 l4.04 0 l0 0.56 l-0.1 0.1 c-0.34 0.4 -0.36 0.96 -0.12 1.34 l3.1 5.1 l3.38 -5 c0.3 -0.46 0.22 -1.14 -0.22 -1.5 l0 -0.6 l2.42 0 l0 0.6 l-0.6 0.38 c-0.1 0.08 -0.2 0.18 -0.28 0.28 l-4.32 6.28 l0 3.28 c0 0.98 0.38 1.94 1.06 2.64 l0 0.54 l-4.3 0 z M125.152 13 c0 -4.1 3.4 -7.26 7.58 -7.26 c4.22 0 7.6 3.16 7.6 7.26 c0 4.12 -3.38 7.26 -7.6 7.26 c-4.18 0 -7.58 -3.14 -7.58 -7.26 z M128.192 14.1 c1.1 3.64 3.86 5.9 6.52 5.28 c2.7 -0.62 3.98 -3.88 2.9 -7.5 c-1.08 -3.64 -4.16 -5.8 -6.84 -5.18 s-3.68 3.8 -2.58 7.4 z M145.121 13.16 l0 -4.62 c0 -0.56 -0.26 -1.06 -0.62 -1.48 l-0.44 -0.5 l0 -0.56 l4.22 0 l0 0.56 l-0.4 0.5 c-0.34 0.42 -0.6 0.92 -0.6 1.48 l0 4.42 c0 3.48 1.68 5.9 4.06 5.9 c2.98 0 4.38 -2.42 4.38 -5.9 l0 -4.74 c0 -0.6 -0.28 -1.22 -0.76 -1.62 l0 -0.6 l2.38 0 l0 0.6 c-0.46 0.4 -0.74 1.02 -0.74 1.62 l0 4.78 c0 3.9 -1.98 7.1 -5.36 7.1 c-3.34 0 -6.12 -2.14 -6.12 -6.94 z M161.27 20 l0 -0.54 l0.78 -0.84 c0.16 -0.18 0.26 -0.4 0.26 -0.64 l0 -9.92 c0 -0.24 -0.1 -0.48 -0.26 -0.64 l-0.78 -0.84 l0 -0.58 l6.26 0 c2.44 0 4.38 2.06 4.22 4.54 c-0.12 2.26 -2.14 4 -4.36 4 l-0.5 0 l1.5 0.28 l2.12 2.68 c0.48 0.6 1.08 1.16 1.72 1.62 l0.46 0.34 l0 0.54 l-3.76 0 l0 -0.54 c0.3 -0.38 0.3 -0.88 0 -1.2 l-3 -3.72 l-1.44 0 l0 3.78 l1.02 1.14 l0 0.54 l-4.24 0 z M164.49 13.86 l2.34 0 c2 0 3.62 -1.6 3.62 -3.6 s-1.62 -3.6 -3.62 -3.6 l-2.34 0 l0 7.2 z M185.60799999999998 20 l0 -0.54 c0.62 -0.74 1.02 -1.68 1.02 -2.62 l0 -7.66 c0 -0.96 -0.4 -1.92 -1.02 -2.62 l0 -0.56 l4.24 0 l0 0.56 c-0.68 0.7 -1.06 1.66 -1.06 2.62 l0 7.66 c0 0.94 0.38 1.88 1.06 2.62 l0 0.54 l-4.24 0 z M193.977 20 l0 -0.54 l0.32 -0.34 c0.36 -0.38 0.56 -0.82 0.56 -1.36 l0 -9.32 c0 -0.48 -0.16 -0.96 -0.46 -1.28 l-0.56 -0.58 l0 -0.58 l3.18 0 l8.14 12.66 l0 -10.7 c0 -0.52 -0.2 -1 -0.62 -1.38 l0 -0.58 l2.4 0 l0 0.58 l-0.32 0.32 c-0.38 0.34 -0.6 0.84 -0.6 1.34 l0 11.76 l-2.16 0 l-7.9 -12.3 l-0.22 0 l0 10.36 c0 0.52 0.24 1.02 0.62 1.4 l0 0.54 l-2.38 0 z M211.046 20 l0 -0.54 l0.32 -0.34 c0.36 -0.38 0.56 -0.82 0.56 -1.36 l0 -9.32 c0 -0.48 -0.16 -0.96 -0.46 -1.28 l-0.56 -0.58 l0 -0.58 l3.18 0 l8.14 12.66 l0 -10.7 c0 -0.52 -0.2 -1 -0.62 -1.38 l0 -0.58 l2.4 0 l0 0.58 l-0.32 0.32 c-0.38 0.34 -0.6 0.84 -0.6 1.34 l0 11.76 l-2.16 0 l-7.9 -12.3 l-0.22 0 l0 10.36 c0 0.52 0.24 1.02 0.62 1.4 l0 0.54 l-2.38 0 z M233.17499999999998 15.879999999999999 l-0.28 -1.88 c2.22 -0.2 3.12 -0.36 4.66 -0.36 c0.8 0 1.62 0.04 2.44 0.08 l0 -5.64 c0 -0.26 -0.08 -0.46 -0.26 -0.66 l-0.76 -0.84 l0 -0.58 l6.24 0 c2.36 0 4.24 1.92 4.24 4.26 c0 2.4 -2.06 4.24 -4.4 4.24 l-0.52 0 l1.54 0.3 l2.1 2.68 c0.48 0.62 1.08 1.16 1.76 1.62 l0.46 0.32 l0 0.58 l-3.8 0 l0 -0.58 c0.14 -0.16 0.22 -0.38 0.22 -0.58 c0 -0.22 -0.08 -0.44 -0.22 -0.62 l-2.96 -3.72 l-1.46 0 l0 3.88 l1.04 1.04 l0 0.58 l-4.24 0 l0 -0.58 l0.76 -0.82 c0.16 -0.16 0.26 -0.4 0.26 -0.64 l0 -3.44 c-1.04 -0.08 -2.04 -0.2 -3.12 -0.08 c-1.14 0.12 -2.2 0.6 -3.08 1.34 c-0.02 0 -0.62 0.1 -0.62 0.1 z M228.01499999999996 20 l0 -0.58 c0.64 -0.7 1 -1.6 1 -2.6 l0 -7.58 c0 -1 -0.36 -1.92 -1 -2.66 l0 -0.58 l10 0 l0 2.58 l-0.92 0 c-1.36 -1.04 -3 -1.62 -4.68 -1.62 l-1.2 0 l0 12.12 l1.14 0 c1.64 0 3.22 -0.56 4.56 -1.52 l0.18 -0.14 l0.82 0 l0 2.58 l-9.9 0 z M242.17499999999995 13.879999999999999 l2.36 0 c1.98 0 3.6 -1.62 3.6 -3.64 c0 -2 -1.62 -3.58 -3.6 -3.58 l-2.36 0 l0 7.22 z M271.91299999999995 14.2 l-0.3 -1.84 c2.3 -0.34 3.32 -0.36 4.98 -0.36 c0.8 0 1.58 0.02 2.38 0.08 l0 -2.88 c0 -0.96 -0.36 -1.88 -1.04 -2.62 l0 -0.58 l4.22 0 l0 0.58 c-0.64 0.74 -1.02 1.66 -1.02 2.66 l0 3.06 c2.08 0.26 4.14 0.7 6.16 1.32 l0 -4.38 c0 -1 -0.38 -1.92 -1.04 -2.66 l0 -0.58 l4.24 0 l0 0.58 c-0.66 0.74 -1.04 1.66 -1.04 2.66 l0 7.56 c0 0.96 0.38 1.9 1.04 2.6 l0 0.6 l-4.24 0 l0 -0.6 c0.66 -0.7 1.04 -1.64 1.04 -2.6 l0 -2.18 c-2.02 -0.66 -4.08 -1.12 -6.16 -1.38 l0 3.56 c0 0.96 0.38 1.9 1.02 2.6 l0 0.6 l-4.22 0 l0 -0.6 c0.68 -0.7 1.04 -1.64 1.04 -2.6 l0 -3.78 c-0.8 -0.04 -1.62 -0.08 -2.44 -0.08 c-1.62 0 -2.82 0.22 -4 1.18 z M275.65299999999996 16.18 l1.78 0 c-1.24 2.38 -3.76 4.02 -6.7 4.02 c-4.14 0 -7.52 -3.2 -7.52 -7.24 c0 -4.1 3.38 -7.16 7.52 -7.16 l0.8 0 c2.54 0 4.84 1.58 5.82 3.94 l-2.9 0 c-1.22 -1.88 -3.02 -3.1 -4.76 -3.1 c-2.52 0 -3.9 1.9 -3.9 4.64 c0 4.44 3.1 8.14 6.02 8.14 c1.94 0 3.3 -1.32 3.84 -3.24 z M294.542 20 l0 -0.54 c0.62 -0.74 1.02 -1.68 1.02 -2.62 l0 -7.66 c0 -0.96 -0.4 -1.92 -1.02 -2.62 l0 -0.56 l4.24 0 l0 0.56 c-0.68 0.7 -1.06 1.66 -1.06 2.62 l0 7.66 c0 0.94 0.38 1.88 1.06 2.62 l0 0.54 l-4.24 0 z M302.791 20 l0 -0.54 c0.66 -0.7 1.02 -1.66 1.02 -2.62 l0 -7.66 c0 -0.96 -0.36 -1.92 -1.02 -2.62 l0 -0.56 l4.26 0 l0 0.56 c-0.68 0.7 -1.02 1.66 -1.02 2.62 l0 9.9 l3.14 0 c1.06 0 2.08 -0.32 2.92 -0.94 l0.64 0 l0 1.86 l-9.94 0 z M316.18 20 l0 -0.54 c0.66 -0.72 1.02 -1.66 1.02 -2.64 l0 -7.64 c0 -0.96 -0.36 -1.92 -1.02 -2.62 l0 -0.56 l5.2 0 c4 0 7.22 3.14 7.22 7.02 c0 3.84 -3.22 6.98 -7.22 6.98 l-5.2 0 z M319.38 19.4 l2 0 c2.66 0 4.8 -2.88 4.8 -6.38 c0 -3.56 -2.14 -6.4 -4.8 -6.4 l-2 0 l0 12.78 z"></path></g></svg>
